<svg xmlns="http://www.w3.org/2000/svg" viewBox="0 0 24 24" fill="none" stroke="#2563EB" stroke-width="1.2" stroke-linecap="round" stroke-linejoin="round">
  <defs>
    <linearGradient id="lotus" x1="0" y1="1" x2="0" y2="0">
      <stop offset="0%" stop-color="#BFDBFE" />
      <stop offset="100%" stop-color="#2563EB" />
    </linearGradient>
  </defs>
  <path d="M3 19c2 1.2 5 1.8 9 1.8s7-.6 9-1.8" stroke-opacity="0.45" />
  <g transform="translate(12 16) rotate(-60)"><path d="M0,-9 C2.4,-5 2.4,-1 0,2 C-2.4,-1 -2.4,-5 0,-9 Z" fill="url(#lotus)" /></g>
  <g transform="translate(12 16) rotate(-30)"><path d="M0,-9 C2.4,-5 2.4,-1 0,2 C-2.4,-1 -2.4,-5 0,-9 Z" fill="url(#lotus)" /></g>
  <g transform="translate(12 16) rotate(0)"><path d="M0,-9 C2.4,-5 2.4,-1 0,2 C-2.4,-1 -2.4,-5 0,-9 Z" fill="url(#lotus)" /></g>
  <g transform="translate(12 16) rotate(30)"><path d="M0,-9 C2.4,-5 2.4,-1 0,2 C-2.4,-1 -2.4,-5 0,-9 Z" fill="url(#lotus)" /></g>
  <g transform="translate(12 16) rotate(60)"><path d="M0,-9 C2.4,-5 2.4,-1 0,2 C-2.4,-1 -2.4,-5 0,-9 Z" fill="url(#lotus)" /></g>
  <circle cx="12" cy="16" r="1.6" fill="#F8FBFF" stroke="#2563EB" stroke-opacity="0.7" />
</svg>

